<?xml version="1.0" standalone="no"?>
<!DOCTYPE svg PUBLIC "-//W3C//DTD SVG 20010904//EN"
 "http://www.w3.org/TR/2001/REC-SVG-20010904/DTD/svg10.dtd">
<svg version="1.0" xmlns="http://www.w3.org/2000/svg"
 width="50.000000pt" height="50.000000pt" viewBox="0 0 50.000000 50.000000"
 preserveAspectRatio="xMidYMid meet">

<g transform="translate(0.000000,50.000000) scale(0.100000,-0.100000)"
fill="#000000" stroke="none">
<path d="M164 486 c-3 -8 -4 -29 -2 -48 l3 -33 85 0 85 0 0 45 0 45 -83 3
c-64 2 -84 0 -88 -12z"/>
<path d="M62 468 c-17 -17 -17 -439 0 -456 17 -17 359 -17 376 0 17 17 17 439
0 456 -7 7 -27 12 -45 12 -26 0 -33 -4 -33 -20 0 -15 7 -20 25 -20 l25 0 0
-200 0 -200 -160 0 -160 0 0 200 0 200 25 0 c18 0 25 5 25 20 0 16 -7 20 -33
20 -18 0 -38 -5 -45 -12z"/>
<path d="M110 240 l0 -180 140 0 140 0 0 180 c0 147 -3 180 -14 180 -7 0 -16
-9 -19 -20 -5 -18 -14 -20 -107 -20 -93 0 -102 2 -107 20 -3 11 -12 20 -19 20
-11 0 -14 -33 -14 -180z m230 60 c0 -13 -91 -150 -100 -150 -12 0 -74 70 -67
76 3 3 20 -4 37 -16 19 -14 35 -19 39 -13 3 5 21 33 40 61 31 49 51 65 51 42z"/>
</g>
</svg>
