<svg version="1.1" xmlns="http://www.w3.org/2000/svg" xmlns:xlink="http://www.w3.org/1999/xlink" viewBox="0 0 172 172"><g fill="none" fill-rule="nonzero" stroke="none" stroke-width="1" stroke-linecap="butt" stroke-linejoin="miter" stroke-miterlimit="10" stroke-dasharray="" stroke-dashoffset="0" font-family="none" font-weight="none" font-size="none" text-anchor="none" style="mix-blend-mode: normal"><path d="M0,172v-172h172v172z" fill="none"></path><g fill="#666666"><path d="M134.16,0c-1.90812,0 -3.44,1.54531 -3.44,3.44v34.4c0,1.89469 1.53188,3.44 3.44,3.44h34.4c1.90813,0 3.44,-1.54531 3.44,-3.44v-34.4c0,-1.89469 -1.53187,-3.44 -3.44,-3.44zM82.99,4.8375c-0.87344,0.13438 -1.69312,0.52406 -2.2575,1.29l-20.425,27.735c-1.12875,1.53188 -0.88687,3.70875 0.645,4.8375l27.735,20.425c1.53188,1.12875 3.70875,0.77938 4.8375,-0.7525l20.425,-27.6275c1.12875,-1.53187 0.77938,-3.70875 -0.7525,-4.8375l-27.6275,-20.425c-0.76594,-0.56437 -1.70656,-0.77937 -2.58,-0.645zM3.44,41.28c-1.89469,0 -3.44,1.54531 -3.44,3.44v34.4c0,1.89469 1.54531,3.44 3.44,3.44h34.4c1.89469,0 3.44,-1.54531 3.44,-3.44v-34.4c0,-1.89469 -1.54531,-3.44 -3.44,-3.44zM149.425,57.62c-0.44344,-0.04031 -0.94062,0.08063 -1.3975,0.215l-32.895,9.9975c-1.81406,0.55094 -2.80844,2.48594 -2.2575,4.3l9.9975,32.895c0.55094,1.81406 2.48594,2.80844 4.3,2.2575l32.895,-9.9975c1.8275,-0.55094 2.80844,-2.4725 2.2575,-4.3l-9.9975,-32.895c-0.41656,-1.35719 -1.57219,-2.33812 -2.9025,-2.4725zM3.44,86c-1.89469,0 -3.44,1.53188 -3.44,3.44v34.4c0,1.90813 1.54531,3.44 3.44,3.44h34.4c1.89469,0 3.44,-1.53187 3.44,-3.44v-34.4c0,-1.90812 -1.54531,-3.44 -3.44,-3.44zM48.16,86c-1.89469,0 -3.44,1.53188 -3.44,3.44v34.4c0,1.90813 1.54531,3.44 3.44,3.44h34.4c1.89469,0 3.44,-1.53187 3.44,-3.44v-34.4c0,-1.90812 -1.54531,-3.44 -3.44,-3.44zM3.44,130.72c-1.89469,0 -3.44,1.53188 -3.44,3.44v34.4c0,1.90813 1.54531,3.44 3.44,3.44h34.4c1.89469,0 3.44,-1.53187 3.44,-3.44v-34.4c0,-1.90812 -1.54531,-3.44 -3.44,-3.44zM48.16,130.72c-1.89469,0 -3.44,1.53188 -3.44,3.44v34.4c0,1.90813 1.54531,3.44 3.44,3.44h34.4c1.89469,0 3.44,-1.53187 3.44,-3.44v-34.4c0,-1.90812 -1.54531,-3.44 -3.44,-3.44zM92.88,130.72c-1.90812,0 -3.44,1.53188 -3.44,3.44v34.4c0,1.90813 1.53188,3.44 3.44,3.44h34.4c1.90813,0 3.44,-1.53187 3.44,-3.44v-34.4c0,-1.90812 -1.53187,-3.44 -3.44,-3.44z"></path></g></g></svg>