<svg version="1.1" xmlns="http://www.w3.org/2000/svg" xmlns:xlink="http://www.w3.org/1999/xlink" viewBox="0 0 172 172"><g fill="none" fill-rule="nonzero" stroke="none" stroke-width="1" stroke-linecap="butt" stroke-linejoin="miter" stroke-miterlimit="10" stroke-dasharray="" stroke-dashoffset="0" font-family="none" font-weight="none" font-size="none" text-anchor="none" style="mix-blend-mode: normal"><path d="M0,172v-172h172v172z" fill="none"></path><g fill="red"><path d="M29.5625,18.8125c-7.42133,0 -13.4375,6.01617 -13.4375,13.4375c0,7.42133 6.01617,13.4375 13.4375,13.4375c7.42133,0 13.4375,-6.01617 13.4375,-13.4375c0,-7.42133 -6.01617,-13.4375 -13.4375,-13.4375zM69.875,26.875v10.75h86v-10.75zM29.5625,72.5625c-7.42133,0 -13.4375,6.01617 -13.4375,13.4375c0,7.42133 6.01617,13.4375 13.4375,13.4375c7.42133,0 13.4375,-6.01617 13.4375,-13.4375c0,-7.42133 -6.01617,-13.4375 -13.4375,-13.4375zM69.875,80.625v10.75h86v-10.75zM29.5625,126.3125c-7.42133,0 -13.4375,6.01617 -13.4375,13.4375c0,7.42133 6.01617,13.4375 13.4375,13.4375c7.42133,0 13.4375,-6.01617 13.4375,-13.4375c0,-7.42133 -6.01617,-13.4375 -13.4375,-13.4375zM69.875,134.375v10.75h86v-10.75z"></path></g></g></svg>