<svg version="1.1" xmlns="http://www.w3.org/2000/svg" xmlns:xlink="http://www.w3.org/1999/xlink" viewBox="0 0 172 172"><g fill="none" fill-rule="nonzero" stroke="none" stroke-width="1" stroke-linecap="butt" stroke-linejoin="miter" stroke-miterlimit="10" stroke-dasharray="" stroke-dashoffset="0" font-family="none" font-weight="none" font-size="none" text-anchor="none" style="mix-blend-mode: normal"><path d="M0,172v-172h172v172z" fill="none"></path><g fill="#666666"><path d="M41.28,0c-3.76014,0 -6.88,3.11986 -6.88,6.88v6.88h-20.64c-3.98696,0 -6.88,2.89304 -6.88,6.88v24.08h158.24v-24.08c0,-3.98696 -2.89304,-6.88 -6.88,-6.88h-20.64v-6.88c0,-3.76014 -3.11986,-6.88 -6.88,-6.88h-6.88c-3.76014,0 -6.88,3.11986 -6.88,6.88v6.88h-61.92v-6.88c0,-3.76014 -3.11986,-6.88 -6.88,-6.88zM41.28,6.88h6.88v20.64h-6.88zM123.84,6.88h6.88v20.64h-6.88zM6.88,51.6v106.64c0,3.9904 2.8896,6.88 6.88,6.88h131.38515l2.75469,2.76813c5.51088,5.4868 14.46068,5.48352 19.96812,-0.00672c3.09944,-2.74512 4.13203,-6.52079 4.13203,-9.95047c0,-3.42968 -1.37793,-6.51332 -3.78937,-9.25844l-3.09063,-3.07719v-93.99531zM37.84,72.24h96.32v24.08h-34.39328h-61.92672zM104.71172,104.75203c2.2532,0.64672 5.38827,1.54677 9.69515,2.77484l-7.00094,7.02781c-0.93912,-3.41248 -1.90646,-6.94057 -2.69422,-9.80265zM120.65531,111.00047l37.7325,37.59813l-9.99078,10.03109l-37.5914,-37.7325zM37.84,113.52h62.14844c0.9665,3.51049 1.73068,6.30257 2.14328,7.80047c0.15824,0.57104 0.45376,1.08188 0.87344,1.505l14.72078,14.77453h-79.88594zM163.24547,153.46969c1.24872,1.49984 1.8611,2.96813 1.8611,4.46797c0.00344,2.11904 -0.60679,3.73079 -1.80735,4.79719l-0.14781,0.13437l-0.14781,0.14781c-2.66256,2.65224 -6.8742,2.77232 -9.70188,0.44344z"></path></g></g></svg>