<svg version="1.1" xmlns="http://www.w3.org/2000/svg" xmlns:xlink="http://www.w3.org/1999/xlink" viewBox="0 0 172 172"><g fill="none" fill-rule="nonzero" stroke="none" stroke-width="1" stroke-linecap="butt" stroke-linejoin="miter" stroke-miterlimit="10" stroke-dasharray="" stroke-dashoffset="0" font-family="none" font-weight="none" font-size="none" text-anchor="none" style="mix-blend-mode: normal"><path d="M0,172v-172h172v172z" fill="none"></path><g fill="#666666"><path d="M8.56641,116.05885v40.72127c0.00591,5.2492 4.25975,9.50304 9.50895,9.50895h39.42606v-59.56508h-39.59994c-5.15309,0.00591 -9.32905,4.18178 -9.33506,9.33486zM101.13227,71.3923h-30.26461c-5.15323,0.00591 -9.32925,4.182 -9.33506,9.33523v85.56153h48.93474v-85.56153c-0.00581,-5.15323 -4.18183,-9.32933 -9.33506,-9.33523zM154.09853,89.05804h-39.59994v77.23102h39.42606c5.2492,-0.00591 9.50304,-4.25975 9.50895,-9.50895v-58.38701c-0.00591,-5.15317 -4.1819,-9.32916 -9.33506,-9.33506zM91.21919,6.94161l4.00229,8.114c0.84732,1.71847 2.4861,2.90986 4.38214,3.1858l8.94914,1.30112c2.19294,0.32001 4.01427,1.85677 4.69874,3.96458c0.68447,2.10781 0.11346,4.42144 -1.4731,5.96875l-6.47563,6.31589c-1.37189,1.33828 -1.99778,3.2657 -1.67388,5.15466l1.52868,8.9182c0.37555,2.18397 -0.52154,4.39174 -2.31398,5.69479c-1.79244,1.30304 -4.16928,1.47531 -6.13088,0.44433l-8.00432,-4.21057c-1.69544,-0.89195 -3.72135,-0.89195 -5.41679,0l-8.00432,4.21057c-1.9616,1.03097 -4.33844,0.85871 -6.13088,-0.44433c-1.79244,-1.30304 -2.68953,-3.51082 -2.31398,-5.69479l1.52868,-8.9182c0.32391,-1.88895 -0.30199,-3.81638 -1.67388,-5.15466l-6.47563,-6.31589c-1.58656,-1.54732 -2.15757,-3.86094 -1.4731,-5.96875c0.68447,-2.10781 2.5058,-3.64457 4.69874,-3.96458l8.94914,-1.30112c1.89603,-0.27594 3.53482,-1.46733 4.38214,-3.1858l4.00219,-8.114c0.97964,-1.98769 3.00326,-3.24638 5.21924,-3.24638c2.21599,0 4.2396,1.2587 5.21924,3.24638z"></path></g></g></svg>